<?xml version="1.0" encoding="iso-8859-1"?>
<!-- Generator: Adobe Illustrator 18.0.0, SVG Export Plug-In . SVG Version: 6.00 Build 0)  -->
<!DOCTYPE svg PUBLIC "-//W3C//DTD SVG 1.1//EN" "http://www.w3.org/Graphics/SVG/1.1/DTD/svg11.dtd">
<svg version="1.1" id="Capa_1" xmlns="http://www.w3.org/2000/svg" xmlns:xlink="http://www.w3.org/1999/xlink" x="0px" y="0px"
	 viewBox="0 0 245 245" style="enable-background:new 0 0 245 245;" xml:space="preserve">
<g>
	<path d="M238.5,38.75H6.5c-3.59,0-6.5,2.91-6.5,6.5v154.5c0,3.59,2.91,6.5,6.5,6.5h232c3.59,0,6.5-2.91,6.5-6.5V45.25
		C245,41.66,242.09,38.75,238.5,38.75z M232,158.66c-19.212-0.851-34.581-16.742-34.581-36.16S212.788,87.191,232,86.34V158.66z
		 M116,137.989c-6.045-2.546-10.3-8.53-10.3-15.489s4.255-12.943,10.3-15.489V137.989z M129,107.011
		c6.045,2.546,10.3,8.53,10.3,15.489s-4.255,12.943-10.3,15.489V107.011z M13,86.34c19.212,0.851,34.581,16.742,34.581,36.16
		S32.212,157.809,13,158.66V86.34z M13,166.66c23.624-0.857,42.581-20.331,42.581-44.16S36.624,79.197,13,78.34V51.75h103.006
		c-0.001,0.042-0.006,0.082-0.006,0.124v46.697c-10.531,2.864-18.3,12.504-18.3,23.929s7.769,21.065,18.3,23.929v46.821H13V166.66z
		 M129,193.25v-46.821c10.531-2.864,18.3-12.504,18.3-23.929s-7.769-21.065-18.3-23.929V51.874c0-0.042-0.005-0.082-0.006-0.124H232
		v26.59c-23.624,0.857-42.581,20.331-42.581,44.16s18.957,43.303,42.581,44.16v26.59H129z"/>
</g>
<g>
</g>
<g>
</g>
<g>
</g>
<g>
</g>
<g>
</g>
<g>
</g>
<g>
</g>
<g>
</g>
<g>
</g>
<g>
</g>
<g>
</g>
<g>
</g>
<g>
</g>
<g>
</g>
<g>
</g>
</svg>
