<?xml version="1.0" encoding="iso-8859-1"?>
<!-- Generator: Adobe Illustrator 19.0.0, SVG Export Plug-In . SVG Version: 6.00 Build 0)  -->
<svg version="1.1" id="Capa_1" xmlns="http://www.w3.org/2000/svg" xmlns:xlink="http://www.w3.org/1999/xlink" x="0px" y="0px"
	 viewBox="0 0 512 512" style="enable-background:new 0 0 512 512;" xml:space="preserve">
<g>
	<g>
		<path d="M46,0v197.945c0,135.351,80.083,257.607,204.022,311.463L256,512l5.978-2.591C385.917,455.553,466,333.296,466,197.945V0
			H46z M76,30h285.811L76,128.935V30z M256,479.221c-34.476-15.853-65.073-37.582-90.825-63.69l240.191-83.143
			C374.711,396.084,322.583,448.604,256,479.221z M420.288,295.477l-276.671,95.771c-9.708-12.167-18.479-25.052-26.248-38.534
			l315.264-109.13C429.999,261.339,425.848,278.691,420.288,295.477z M436,197.945c0,4.289-0.098,8.563-0.273,12.821
			L103.541,325.754c-4.119-9.103-7.804-18.422-11.037-27.927L436,178.925V197.945z M436,147.179L84.22,268.949
			c-2.303-9.806-4.134-19.766-5.48-29.851L436,115.432V147.179z M436,83.685L76.177,208.239C76.064,204.818,76,201.387,76,197.945
			V160.68L436,36.065V83.685z"/>
	</g>
</g>
<g>
</g>
<g>
</g>
<g>
</g>
<g>
</g>
<g>
</g>
<g>
</g>
<g>
</g>
<g>
</g>
<g>
</g>
<g>
</g>
<g>
</g>
<g>
</g>
<g>
</g>
<g>
</g>
<g>
</g>
</svg>
